<svg width="1425" height="1381" viewBox="0 0 1425 1381" fill="none" xmlns="http://www.w3.org/2000/svg">
<g opacity="0.05" clip-path="url(#clip0_20_91)">
<path d="M257.875 634.947C257.875 634.947 258.089 634.223 257.364 634.008C257.364 634.008 257.149 634.732 257.875 634.947Z" fill="black"/>
<path d="M1403.52 328.105C1402.58 328.614 1400.19 328.693 1399.25 329.202C1393.94 341.802 1389 358.451 1384.92 372.206C1377.92 398.481 1366.35 424.19 1351.59 447.377C1339.78 465.926 1326.22 482.382 1311.72 499.347C1300.26 514.062 1288.37 530.224 1271.16 537.721C1266.46 540.265 1248.23 545.885 1244.01 541.484C1238.56 535.929 1256.09 516.713 1260.7 511.782C1285.59 483.722 1309.19 460.005 1325.51 426.255C1325.94 424.807 1326.88 424.298 1327.31 422.85C1333.78 409.017 1341.19 394.675 1347.14 379.903C1351.3 368.536 1356.89 349.715 1360.32 338.132C1363.97 325.826 1362.49 317.512 1358.25 305.227C1355.32 296.483 1351.66 287.524 1348.73 278.779C1344.79 268.157 1340.11 257.32 1335.22 247.207C1333.18 243.452 1331.35 238.972 1328.59 235.001C1315.83 211.528 1298.75 194.649 1274.01 184.952C1258.49 178.774 1248.96 165.708 1235.02 156.849C1232.06 161.486 1232.09 169.37 1232.63 178.193C1233.68 187.955 1235.67 197.208 1236.34 202.92C1237.98 216.008 1240.35 229.311 1238.87 242.262C1237.27 258.324 1232.33 274.974 1229.06 291.33C1219.16 338.01 1204.69 384.125 1189.5 430.025C1182.98 449.355 1177.89 482.497 1151.01 480.038C1145.02 465.661 1146.19 451.046 1146.65 436.217C1147.1 421.388 1153.06 406.616 1157.14 392.862C1163.36 371.869 1170.31 351.091 1177.99 330.528C1179.71 324.736 1182.15 319.16 1183.87 313.369C1205.15 249.587 1218.24 184.164 1223.87 117.314C1224.43 112.755 1224.48 107.258 1225.04 102.7C1226.62 78.7536 1223 56.413 1208.95 37.2834C1204.95 32.1588 1199.79 28.2669 1195.79 23.1423C1185.61 12.2479 1177.31 0.33582 1165.25 -9.54076C1144.11 -26.0471 1118.01 -33.7878 1095.94 -49.7853C1081.7 -60.3069 1064.73 -66.9152 1047.33 -72.0757C1035 -75.731 1020.72 -80.7553 1006.97 -76.9566C1006.86 -65.9619 1013.5 -53.756 1015.78 -42.8401C1018.87 -29.3225 1021.96 -15.8049 1025.05 -2.28736C1032.2 32.123 1042.9 65.2217 1051.93 98.6143C1066.33 156.44 1101.57 207.844 1092.88 269.061C1088.22 300.755 1070.5 328.578 1064.17 360.566C1062.1 370.192 1063.37 400.495 1050.05 402.846C1040.06 404.609 1040.52 389.78 1039.55 382.405C1038.2 370.98 1039.46 358.753 1036.67 346.898C1034.17 336.706 1032.83 325.281 1032.72 315.01C1034.32 277.683 1035.12 237.754 1031 201.093C1028.45 175.133 1024.44 148.743 1020.22 123.076C1014.52 89.0962 1011.99 49.7546 1003.68 16.5771C996.562 -9.94923 987.614 -40.9551 973.19 -64.1342C957.826 -86.8045 931.533 -107.203 904.411 -116.821C901.51 -117.681 899.335 -118.326 897.16 -118.971C851.992 -131.579 799.601 -138.452 755.272 -119.308C755.272 -119.308 755.272 -119.308 754.547 -119.523C741.095 -114.062 738.357 -110.148 744.777 -97.2186C753.239 -80.533 763.714 -67.9758 776.149 -54.0497C797.018 -31.3221 817.672 -7.87061 835.507 17.1075C859.171 51.6899 886.379 84.9606 905.344 122.087C917.164 146.069 924.285 172.596 925.901 199.065C928.028 226.472 919.064 251.379 919.23 277.418C919.368 295.573 923.937 317.404 917.845 335.287C916.128 341.078 912.746 347.163 905.576 347.4C900.072 347.342 899.991 344.956 897.439 340.261C888.037 324.084 883.038 303.7 878.121 285.703C872.612 264.38 867.613 243.997 862.105 222.674C851.301 179.304 828.711 141.102 814.363 99.0445C804.046 69.9953 789.031 43.4905 780.593 13.4235C779.277 9.88288 778.175 5.61831 777.583 2.29267C769.308 -23.0008 756.629 -44.0871 739.386 -65.7396C719.886 -90.4239 695.044 -110.392 663.222 -117.466C649.017 -120.104 634.382 -121.294 619.103 -120.312C596.655 -119.093 574.798 -114.549 555.412 -107.697C545.719 -104.271 539.06 -103.096 546.043 -94.7242C552.005 -88.2306 557.753 -81.0131 563.716 -74.5195C589.016 -48.1151 612.57 -23.8035 627.614 10.5853C645.425 48.9449 662.081 88.5372 680.617 127.112C701.194 169.442 723.436 211.478 733.166 258.467C736.042 272.709 741.308 286.872 740.855 301.701C739.838 321.088 737.157 340.77 736.14 360.158C735.257 376.435 722.883 399.542 706.231 381.215C689.068 361.949 684.847 336.283 678.532 312.359C674.931 297.902 672.055 283.661 669.179 269.419C663.937 241.875 662.965 213.234 655.334 185.769C648.427 158.519 640.796 131.054 634.829 103.295C629.749 80.5241 626.254 55.073 615.75 34.6317C603.93 10.6499 589.936 -13.9771 572.477 -34.9057C562.002 -47.4629 553.407 -61.0378 540.623 -71.1294C531.546 -77.7592 519.998 -86.6968 508.692 -88.4743C499.777 -90.3306 490.084 -86.9047 481.331 -83.9875C461.219 -77.3506 439.31 -67.3092 421.24 -56.9165C409.749 -50.086 397.747 -44.1945 384.51 -39.4569C373.877 -35.522 358.25 -30.7056 349.658 -23.015C331.751 -7.84892 370.15 -4.33692 380.301 -1.32665C404.739 6.70793 427.726 14.3125 446.338 34.0083C470.403 59.2588 488.91 89.9493 505.028 120.719C519.104 147.732 537.449 173.649 544.651 202.562L561.689 267.47C564.484 279.324 574.076 308.159 558.959 313.914C549.266 317.34 536.616 304.138 531.082 296.196C521.037 282.191 519.02 265.054 515.123 248.935C510.42 230.214 506.442 211.708 500.074 193.281C493.707 174.853 488.064 156.641 481.697 138.214C477.666 125.205 472.696 112.706 466.786 100.715C459.56 85.183 449.3 71.9019 436.945 60.3625C421.61 45.5763 404.18 32.5318 386.321 20.9351C375.068 13.6602 365.48 6.09152 352.644 1.49727C339.082 -3.31201 328.96 1.5618 317.764 10.0551C307.508 18.0395 298.273 27.9018 290.702 37.4702C284.501 45.0819 275.642 58.9936 276.477 69.4794C282.115 66.4262 290.682 72.117 296.268 74.5611C313.536 82.8322 324.388 99.4389 334.729 115.107C350.093 137.777 364.732 160.232 381.975 181.885C388.744 190.98 449.366 271.175 413.652 269.247C398.802 268.781 385.48 249.867 377.476 239.618C362.407 218.61 350.373 195.352 331.545 176.38C320.131 164.332 307.266 151.854 294.697 141.038C285.109 133.469 277.644 132.043 268.623 141.181C258.663 150.829 250.262 171.177 250.963 184.773C251.421 191.209 254.993 197.782 259.21 202.183C262.191 205.429 269.308 210.69 268.531 215.973C266.546 227.985 239.318 229.361 231.075 233.217C220.523 239.539 215.505 253.802 219.535 266.81C227.381 293.552 257.084 315.749 283.482 325.153C305.53 333.266 328.193 331.324 350.374 336.326C359.289 338.183 384.881 344.984 368.261 355.807C356.77 362.638 339.368 357.477 327.123 356.209C313.939 355.449 300.673 352.302 286.763 351.328C272.854 350.353 258.729 350.102 246.322 344.06C233.19 337.803 228.086 328.414 219.357 317.949C221.67 336.749 221.298 353.965 226.511 373.625C231.509 394.009 242.47 420.887 260.84 433.422C270.642 440.267 284.848 442.905 297.818 444.388C305.498 445.091 313.178 445.793 319.193 446.789C353.538 450.674 387.344 445.736 421.365 440.073C429.689 438.604 438.953 436.626 448.002 435.372C469.644 431.552 492.307 429.609 512.742 432.519C536.078 436.289 532.752 458.142 516.429 470.628C499.38 482.898 470.702 483.844 450.939 486.647C425.967 491.055 400.914 493.076 376.505 492.925C342.537 493.09 308.516 498.752 275.325 493.635C262.57 491.427 253.574 487.184 244.2 478.892C238.023 473.122 231.765 464.966 224.004 461.877C222.716 466.22 223.174 472.656 222.611 477.215C222.773 481.988 222.72 487.485 222.882 492.259C223.774 518.513 229.659 543.885 240.539 568.376C245.724 580.152 249.325 594.608 258.994 604.564C261.465 606.872 263.936 609.18 267.346 610.979C277.578 616.376 290.334 618.583 300.699 620.87C318.53 624.582 336.575 627.571 355.265 628.388C380.184 629.477 400.886 626.166 425.563 620.095C451.179 613.516 477.09 608.599 501.175 599.203C519.836 592.136 537.476 583.191 556.352 575.4C574.288 568.118 591.499 560.621 610.456 555.217C622.324 552.436 646.919 543.978 655.514 557.553C670.664 580.947 622.523 607.624 608.05 611.208C579.829 618.59 549.405 617.443 520.727 618.39C488.719 619.923 459.559 627.815 429.54 638.601C396.917 650.191 362.386 654.914 328.632 654.355C316.173 653.811 302.907 650.664 291.306 647.224C285.505 645.504 260.209 640.365 257.658 635.67C259.351 643.26 261.044 650.851 263.677 657.932C278.749 700.205 295.224 769.671 342.863 784.586C365.125 791.975 394.261 797.465 417.272 791.688C446.218 784.521 476.399 778.508 503.813 768.524C540.92 755.114 576.201 737.224 610.756 719.119C637.794 705.086 665.8 698.427 694.96 690.536C708.493 687.461 740.687 677.319 740.047 700.756C738.95 717.757 718.113 724.179 705.467 732.243C661.891 759.486 614.876 777.046 567.942 796.992C540.823 808.639 512.469 819.132 484.626 830.564C472.113 835.517 459.387 841.193 446.364 845.207C438.55 847.615 428.266 847.716 420.748 851.787C413.955 856.073 411.594 864.036 411.193 873.367C410.792 882.699 413.291 892.891 414.259 900.266C418.318 921.159 426.513 944.066 439.754 960.594C449.719 972.212 464.329 986.783 478.267 995.642C481.463 998.165 485.599 1000.18 489.224 1001.25C505.257 1008.37 526.36 995.728 541.691 989.249C603.742 963.547 656.687 923.331 706.866 879.144C729.391 859.047 753.877 840.319 778.362 821.59C801.694 804.095 813.667 790.319 845.541 791.896C851.046 791.953 853.25 800.483 853.922 806.195C855.514 846.045 794.432 879.123 767.127 899.378C717.43 936.619 657.473 960.579 604.285 993.635C589.76 1002.72 573.732 1016.86 566.619 1032.87C559.506 1048.87 561.576 1060.51 567.648 1077.28C575.037 1097.58 580.384 1114.13 599.693 1126.16C600.928 1127.31 602.378 1127.74 604.339 1129.11C623.648 1141.14 648.758 1154.89 670.562 1155.84C718.011 1158.1 758.601 1106.34 786.226 1074.37C809.019 1048.05 829.851 1020.36 853.368 994.259C860.51 986.138 867.865 977.294 874.496 968.234C879.758 961.131 884.294 953.813 888.106 946.281C895.729 931.215 901.606 914.056 911.19 900.359C918.25 889.852 937.093 852.912 951.728 854.101C967.303 854.782 956.593 877.596 952.352 886.577C934.53 925.395 914.022 962.629 893.003 998.925C879.689 1022.54 871.236 1048.39 859.587 1071.71C847.427 1094.09 834.38 1111.49 818.299 1131.13C804.527 1148.31 790.755 1165.49 774.298 1181.09C765.707 1188.78 745.543 1200.91 742.538 1211.05C766.302 1213.37 790.148 1218.08 814.099 1211.79C851.583 1202.43 890.088 1194.95 920.131 1170.78C966.713 1133.41 980.72 1080.85 995.585 1025.41C999.664 1011.65 1003.96 997.176 1008.76 983.637C1013.78 969.374 1019.52 955.326 1024.33 941.786C1027.63 933.315 1030.85 922.456 1036.03 912.967C1040.78 904.925 1046.77 898.037 1056.97 895.55C1075.71 890.87 1076.04 921.682 1078.92 935.924C1084.29 960.357 1086.34 985.378 1089.11 1010.61C1092.98 1040.12 1078.46 1070.46 1054.19 1088.47C1036.2 1101.25 1021.65 1102.44 1001.54 1109.08C1012.39 1125.69 1040.13 1125.25 1057.07 1123.97C1113.11 1118.54 1165.14 1086.72 1200.26 1042.79C1211.08 1030.25 1220.15 1015.61 1227.56 1001.27C1232.74 991.779 1235.96 980.92 1239.18 970.062C1241.11 963.546 1242.53 956.092 1243.74 949.362C1248.65 924.828 1257.18 901.37 1256.08 875.84C1255.21 857.47 1255 836.928 1248.63 818.501C1244.6 805.492 1236.3 793.58 1234.15 779.554C1229.63 752.225 1198.21 757.084 1177.03 746.075C1165.34 740.248 1112.28 706.397 1139.31 692.363C1180.02 672.144 1200.28 747.459 1240.83 743.732C1261.1 741.868 1282.45 736.385 1302.56 729.748C1305.16 728.945 1307.98 727.419 1311.31 726.831C1324.55 722.093 1337.49 715.693 1350.22 710.016C1359.4 705.651 1369.31 701.502 1378.7 696.413C1381.52 694.886 1383.62 693.144 1386.44 691.618C1397.2 684.572 1410.2 672.674 1417.47 661.443C1420.64 656.082 1422.06 648.628 1423.48 641.174C1423.83 637.34 1423.96 634.229 1424.1 631.118C1424.31 630.394 1424.53 629.671 1423.8 629.455C1423.51 627.793 1424.15 625.621 1423.86 623.958C1424.82 610.068 1424.84 596.686 1424.87 583.305C1424.65 562.763 1426.09 541.928 1424.43 520.956C1422.08 494.272 1423.29 466.277 1423.55 438.79C1423.36 426.133 1422.95 414.199 1422.04 401.326C1421.96 398.94 1421.88 396.553 1421.07 393.951C1420.69 389.902 1420.1 386.576 1419.51 383.25C1416.69 363.512 1410.83 346.023 1403.52 328.105ZM830.691 650.456C824.408 655.681 818.422 662.569 811.119 665.916C806.635 667.737 796.942 671.162 794.256 669.578C792.887 671.535 786.361 669.6 784.401 668.231C782.44 666.862 782.145 665.199 781.339 662.598C779.941 656.67 779.994 651.173 781.711 645.382C787.455 631.334 799.939 618.497 812.88 612.096C823.003 607.223 842.174 601.095 846.286 616.49C850.02 627.836 840.222 642.257 830.691 650.456ZM808.719 482.49C802.571 484.604 791.156 472.556 786.939 468.155C781.702 461.876 779.498 453.347 777.295 444.818C773.398 428.699 772.831 411.992 780.454 396.926C786.493 384.541 799.301 381.251 808.541 392.654C818.505 404.273 818.509 425.538 820.446 440.288C821.495 450.05 819.429 459.676 816.638 469.087C816.29 472.921 815.808 479.866 808.719 482.49ZM941.548 702.233C933.548 713.249 922.057 720.079 911.963 732.837C902.565 737.926 891.207 741.646 888.117 728.128C885.751 714.826 900.625 701.91 908.195 692.342C915.551 683.497 929.027 664.654 943.018 668.016C961.574 671.944 948.608 691.725 941.548 702.233ZM901.041 495.692C897.816 485.285 899.667 476.383 901.223 465.818C902.993 454.53 907.153 443.162 911.098 432.519C913.755 426.219 915.472 420.428 920.6 416.435C925.514 413.167 929.273 411.132 934.644 414.3C940.74 417.683 943.292 422.377 945.925 429.458C949.364 439.142 951.138 449.118 953.637 459.31C956.137 469.502 957.186 479.264 953.455 489.184C949.939 498.38 944.329 509.317 936.892 515.775C932.919 518.534 927.925 519.416 922.286 522.469C912.484 515.624 904.05 506.823 901.041 495.692ZM1024.26 721.248C1025.23 728.623 1018.38 738.406 1015 744.491C1011.62 750.576 1009.31 753.042 1004.9 757.249C1000.63 758.346 999.05 761.026 997.438 755.823C994.886 751.128 996.174 746.785 997.463 742.442C999.476 738.313 1000.98 733.246 1002.99 729.117C1005.73 725.204 1008.98 722.23 1012.23 719.255C1016.63 715.048 1022.27 711.995 1024.26 721.248ZM1040.52 530.754C1036.57 541.398 1035.15 548.852 1022.13 552.866C1015.47 554.041 1011.31 544.143 1011.36 538.646C1012.14 533.363 1013.85 527.572 1015.36 522.505C1017.93 513.818 1020.29 505.855 1023.6 497.383C1025.1 492.316 1027.24 485.077 1030.2 480.44C1035.46 473.337 1043.22 476.426 1045.64 484.231C1050.39 497.455 1045.11 517.939 1040.52 530.754ZM1121.64 552.45C1122.83 559.101 1120.76 568.727 1118.1 575.027C1115.88 579.879 1109.89 586.767 1106.64 589.741C1094.96 583.914 1099.9 567.265 1104.14 558.284C1106.15 554.156 1108.3 546.917 1113 544.372C1117.18 540.889 1120.76 547.461 1121.64 552.45Z" fill="black"/>
<path d="M1275.18 367.225C1278.61 355.643 1281.11 344.569 1283.82 332.772C1281.11 344.569 1278.4 356.366 1275.18 367.225Z" fill="black"/>
<path d="M1199.16 636.867C1230.68 621.013 1258.63 598.587 1280.19 571.114C1254.49 596.573 1223.78 615.028 1189.49 626.912C1210.46 617.379 1228.15 602.937 1242.86 585.248C1221.63 601.002 1197.33 611.122 1171.42 616.039C1193.51 597.39 1211.82 572.892 1223.09 545.52C1210.82 557.632 1197.02 566.929 1182.28 576.733C1220.19 544.66 1253.29 504.859 1280.08 462.4C1250.98 486.059 1219.11 505.748 1184.99 522.405C1215.41 502.286 1237.31 470.979 1251.97 437.522C1261.74 415.218 1268.82 391.329 1274.96 367.949C1261.23 414.279 1239.72 457.519 1208.93 494.854C1226.52 470.141 1237.28 441.83 1244.42 412.444C1251.55 383.058 1254.63 354.044 1258.87 323.798C1247.63 359.054 1244.14 397.4 1227.31 430.212C1213.36 456 1192.79 477.466 1170.99 497.778C1184.9 477.487 1194.16 454.244 1196.67 429.789C1191.79 440.941 1185.67 450.94 1178.82 460.723C1176.17 467.023 1172.06 472.893 1167.15 476.161C1158.64 486.239 1149.62 495.377 1139.36 503.362C1143.6 494.381 1146.9 485.909 1149.69 476.498C1148.08 471.295 1146.68 465.367 1146.74 459.87C1141.98 467.912 1136 474.8 1129.8 482.411C1145.2 435.788 1154.08 387.229 1158.39 338.104C1154.67 390.555 1134.78 438.999 1104.66 482.046C1128.9 434.892 1140.01 381.481 1139.38 327.74C1130.71 375.575 1116.76 422.629 1099.4 467.883C1117.99 402.517 1127.16 334.356 1122.72 266.882C1117.68 337.058 1097.8 406.767 1062.31 467.912C1081.31 414.479 1090.16 358.037 1087.28 301.264C1080.09 357.413 1065.66 411.412 1040.35 462.185C1048.53 442.561 1052.15 422.371 1052.87 401.32C1051.93 401.829 1050.78 403.062 1049.33 402.632C1048.39 403.141 1047.67 402.926 1046.94 402.711C1042.68 425.073 1036.24 446.79 1026.17 467.432C1038.84 424.722 1041.14 379.725 1032 336.062C1029.7 381.058 1021.38 425.058 1006.33 467.847C1019.47 418.192 1020.08 365.605 1008.82 315.8C1007.03 361.735 997.56 406.968 982.289 450.481C999.625 397.342 1003.91 340.333 995.092 284.951C993.464 335.66 987.056 386.527 976.298 436.103C984.156 385.667 979.554 334.686 963.084 286.485C962.177 316.144 961.485 345.078 961.303 374.952C960.355 332.93 952.962 291.359 937.756 252.197C941.847 302.239 940.434 352.224 931.851 402.446C936.436 368.365 932.401 334.091 921.493 301.716C922.113 312.926 922.008 323.92 918.787 334.779C918.573 335.503 918.143 336.95 917.929 337.674C914.174 360.975 909.694 384.061 903.764 406.717C908.11 386.742 909.342 366.63 907.458 346.383L906.733 346.168C901.228 346.11 901.147 343.724 898.381 339.753C896.262 354.876 894.144 369.999 889.85 384.477C892.665 361.685 892.365 338.757 887.796 316.925C884.357 307.242 881.858 297.05 879.144 287.582C877.135 312.976 875.555 336.922 872.821 362.101C874.988 320.215 869.475 277.626 855.209 237.955C856.639 273.032 856.108 306.74 853.698 341.466C854.897 292.205 844.147 243.338 822.763 198.406C829.431 239.761 832.044 281.49 828.937 323.884C822.804 270.086 809.287 217.249 787.527 168.267C797.39 212.146 800.595 257.2 797.569 301.981C796.969 256.124 785.87 211.092 764.864 170.21C770.644 206.577 776.935 243.883 777.936 280.407C778.722 317.656 774.003 354.847 759.859 389.243C766.109 354.869 762.289 319.871 751.809 286.048C757.995 334.349 748.687 384.355 726.462 427.381C732.072 416.443 734.271 403.707 733.141 391.558C727.397 405.606 718.458 417.131 707.558 427.288C711.503 416.644 712.629 407.527 711.069 396.826C710.158 405.219 705.621 412.537 698.614 417.547C701.619 407.413 701 396.203 699.225 386.226C697.804 393.68 694.207 400.489 689.885 407.083C692.595 395.285 691.464 383.137 687.005 371.576C685.02 383.588 681.8 394.447 677.13 404.875C679.783 377.31 677.656 349.902 672.414 322.358C669.113 330.83 663.341 336.994 656.629 343.666C667.95 289.531 665.066 232.759 649.373 179.276C655.936 231.627 652.214 284.077 637.911 334.965C648.937 279.168 643.367 220.811 621.015 168.504C635.715 227.993 633.982 289.696 618.043 348.762C626.76 295.43 619.391 240.478 595.027 192.299C602.043 229.82 603.849 268.947 599.426 307.801C597.47 327.698 593.124 347.673 578.546 362.251C589.065 326.78 593.784 289.589 590.608 252.419C589.62 279.691 584.067 306.396 574.888 332.027C570.513 344.118 564.689 355.779 553.197 362.61C559.237 350.224 562.886 337.918 563.635 324.752C559.557 338.506 550.617 350.031 538.186 357.37C540.681 346.297 541.511 335.517 540.891 324.307C539.336 334.872 534.155 344.362 527.014 352.482C530.368 338.513 529.667 324.917 525.851 311.184C526.042 323.842 523.117 336.363 516.057 346.87C516.478 302.891 506.615 259.013 488.294 219.715C497.27 258.605 499.802 297.946 497.339 338.169C492.069 302.741 479.201 268.997 459.753 238.816C470.233 272.638 475.932 306.618 479.027 341.402C466.697 316.481 454.152 292.284 439.942 268.381C448.218 293.674 456.923 317.52 466.352 341.581C447.955 321.161 430.067 301.68 411.669 281.26C427.973 303.422 444.062 326.307 460.58 347.745C435.122 337.832 410.819 326.687 387.159 313.37C408.081 330.6 431.74 343.917 457.413 353.106C430.829 352.31 405.399 350.282 378.949 346.376C408.462 355.915 436.953 363.577 467.11 370.945C434.163 372.988 401.859 372.859 369.26 371.067C405.647 378.708 442.381 382.513 479.331 385.595C444.318 397.264 406.457 402.575 369.293 400.217C413.412 403.062 456.644 400.919 500.224 394.942C472.218 401.6 445.877 407.965 418.086 413.899C453.719 413.44 489.271 410.595 524.232 404.424C496.522 412.745 469.966 419.834 441.45 425.553C477.889 427.696 514.247 427.453 551.464 424.313C546.551 427.582 541.852 430.126 536.214 433.179C544.323 432.434 551.707 431.473 560.541 430.943C550.5 438.203 539.948 444.525 529.826 449.399C529.397 450.847 528.967 452.294 528.538 453.742C542.071 450.668 555.094 446.654 568.627 443.579C530.689 467.769 488.964 486.11 444.229 493.32C489.904 485.601 535.282 476.219 580.284 462.787C538.345 481.853 495.303 496.653 450.139 505.311C493.209 498.395 535.258 489.601 577.441 477.696C528.465 493.887 478.173 506.537 427.075 516.586C483.921 513.754 541.034 504.702 594.923 485.243C539.102 511.217 480.648 530.11 420.42 539.026C488.948 542.022 557.071 533.085 622.184 513.016C561.851 532.927 500.12 546.911 437.206 554.243C489.649 555.619 543.299 550.265 594.02 536.167C557.047 546.466 519.777 555.103 481.702 561.138C545.717 558.07 612.953 544.144 674.064 518.951C662.816 532.941 646.625 542.316 629.038 545.764C654.601 544.681 680.808 541.427 705.189 533.694C693.697 540.524 682.421 546.631 670.714 554.185C687.792 549.799 703.714 546.645 719.852 542.768C707.421 550.107 696.44 557.876 684.009 565.216C696.897 564.313 708.336 562.98 720.419 559.475C690.429 578.146 661.297 593.921 629.05 609.56C661.378 596.308 692.551 584.288 724.664 571.76C682.538 599.433 637.35 621.472 589.825 638.093C638.533 628.123 685.2 614.398 731.194 594.96C684.503 622.067 634.669 641.154 581.987 653.883C640.254 643.598 697.044 624.999 749.454 597.225C693.528 634.194 631.262 660.62 564.671 672.375C640.178 662.476 713.696 643.325 782.969 611.889C735.071 645.726 679.679 670.253 621.707 682.201C675.438 679.234 728.497 670.554 779.137 654.069C779.271 650.959 779.405 647.848 780.988 645.167C786.732 631.119 799.216 618.283 812.157 611.882C822.28 607.008 841.451 600.88 845.563 616.276C848.868 629.07 839.07 643.49 830.478 651.181C824.196 656.406 818.209 663.294 810.906 666.641C806.422 668.461 796.729 671.887 794.043 670.303C792.889 671.536 786.149 670.325 784.188 668.956C782.228 667.587 781.932 665.924 781.126 663.322C780.32 660.72 780.239 658.334 780.373 655.223C746.676 670.432 712.388 682.316 675.762 688.781C686.047 688.68 697.056 688.795 707.341 688.695C714.94 687.01 723.989 685.756 730.729 686.967C776.055 683.083 821.138 672.038 863.373 654.635C825.087 682.66 783.739 705.05 738.818 720.869C768.784 715.579 797.944 707.688 826.003 695.532C783.905 731.089 735.254 756.827 682.224 773.391C730.636 761.758 777.437 744.922 821.175 722.453C785.493 749.674 748.495 773.355 708.731 793.065C770.219 771.922 828.563 742.758 882.1 705.867C853.401 741.461 817.934 767.958 775.78 787.747C841.003 777.949 903.054 752.247 956.805 714.633C932.724 745.295 903.406 769.678 869.361 788.722C897.286 779.677 922.954 767.6 948.031 752.197C930.906 783.346 904.488 808.59 872.456 823.505C905.16 814.302 935.742 798.957 963.557 779.641C933.972 810.245 899.66 835.51 861.775 854.203C902.426 839.481 941.976 820.495 977.739 795.66C942.004 828.379 904.229 857.342 863.768 884.721C920.127 867.57 970.334 831.267 1005.58 784.228C1000.7 816.646 992.41 847.265 978.829 877.102C1013.03 841.567 1034.45 795.939 1042.6 747.166C1050.15 772.244 1054.81 796.462 1055.7 822.716C1063.29 799.767 1065.38 776.759 1062.91 753.186C1076.88 791.194 1083.25 830.887 1082.24 871.54C1093.67 848.942 1097.86 824.193 1094.36 798.742C1115.18 848.232 1124.64 901.442 1121.43 954.832C1134.18 914.508 1136.64 874.285 1127.58 833.009C1137.63 868.279 1142.18 903.492 1141.51 940.311C1154.77 900.926 1160.78 859.392 1158.16 817.663C1164.78 864.516 1167.34 911.742 1159.83 958.344C1177.52 922.636 1185.78 884.133 1180.13 844.656C1192.87 881.51 1198.52 920.988 1192.86 958.688C1227.32 895.666 1226.02 814.947 1191.1 751.824C1186.02 750.319 1180.95 748.814 1176.81 746.8C1165.13 740.973 1112.06 707.122 1139.1 693.088C1162.38 681.09 1179.11 701.803 1196.71 719.621C1244.55 712.547 1290.93 697.159 1333.21 674.259C1294.31 691.074 1253.2 699.359 1211.55 698.822C1261.49 690.006 1308.13 668.396 1347.49 636.753C1309.23 651.395 1270.51 659.602 1229.96 663.329C1276.85 648.88 1320.29 624.747 1356.24 591.305C1312.23 619.995 1262.91 640.021 1210.79 648.192C1264.89 628.009 1313.09 595.834 1353.79 554.35C1310.83 592.803 1257.26 621.809 1199.16 636.867ZM817.58 468.579C816.292 472.922 815.81 479.867 808.722 482.49C802.573 484.605 791.158 472.556 786.941 468.156C781.704 461.877 779.5 453.348 777.297 444.819C773.4 428.7 772.833 411.992 780.456 396.927C786.495 384.542 799.303 381.252 808.543 392.655C818.507 404.273 818.512 425.539 820.448 440.289C822.437 449.542 820.371 459.168 817.58 468.579ZM941.55 702.234C933.55 713.25 922.059 720.08 911.965 732.838C902.567 737.927 891.21 741.647 888.119 728.129C885.753 714.827 900.627 701.911 908.197 692.343C915.553 683.498 929.029 664.655 943.02 668.017C961.576 671.944 948.61 691.726 941.55 702.234ZM901.043 495.693C897.818 485.286 899.669 476.384 901.225 465.819C902.995 454.531 907.155 443.163 911.1 432.52C913.757 426.22 915.475 420.428 920.603 416.436C925.516 413.168 929.275 411.132 934.646 414.3C940.742 417.683 943.294 422.378 945.927 429.459C949.366 439.142 951.14 449.119 953.64 459.311C956.139 469.503 957.188 479.265 953.457 489.185C949.942 498.38 944.332 509.318 936.895 515.775C932.921 518.535 927.927 519.416 922.288 522.47C912.486 515.625 904.052 506.823 901.043 495.693ZM1024.26 721.249C1025.23 728.624 1018.38 738.407 1015 744.492C1011.62 750.577 1009.31 753.043 1004.91 757.25C1001.15 759.286 999.053 761.027 997.44 755.824C994.889 751.129 996.177 746.786 997.465 742.442C999.478 738.314 1000.98 733.247 1002.99 729.118C1005.73 725.205 1008.98 722.23 1012.23 719.256C1016.63 715.049 1022.27 711.995 1024.26 721.249ZM1040.52 530.755C1036.58 541.399 1035.15 548.853 1022.13 552.866C1015.47 554.042 1011.31 544.144 1011.36 538.646C1012.14 533.364 1013.86 527.573 1015.36 522.505C1017.93 513.819 1020.3 505.856 1023.6 497.384C1025.1 492.317 1027.25 485.078 1030.2 480.44C1035.46 473.338 1043.22 476.427 1045.64 484.232C1050.4 497.456 1045.11 517.94 1040.52 530.755ZM1121.65 552.451C1122.83 559.102 1120.76 568.728 1118.11 575.028C1115.88 579.88 1109.89 586.768 1106.64 589.742C1094.96 583.915 1099.9 567.265 1104.14 558.285C1106.15 554.156 1108.3 546.917 1113 544.373C1117.19 540.89 1120.76 547.462 1121.65 552.451Z" fill="black"/>
<path d="M277.357 574.569C324.997 589.484 375.05 590.939 424.268 581.909C377.387 596.358 328.517 601.554 280.047 597.419C301.933 600.759 322.797 602.221 345.112 604.113C319.2 609.03 293.422 610.836 267.563 610.255C264.153 608.456 261.682 606.149 259.211 603.841C249.542 593.885 245.941 579.429 240.756 567.653C229.876 543.162 223.991 517.79 223.099 491.536C242.327 501.176 263.569 506.687 284.729 509.812C311.394 512.995 339.133 512.557 366.361 511.181C331.347 522.85 294.937 528.591 258.712 525.724C301.114 534.361 345.071 532.433 387.254 520.528C350.79 531.766 314.165 538.231 276.008 541.879C319.994 547.835 363.736 546.631 406.51 538.052C371.497 549.72 335.597 556.4 299.105 559.754C341.64 565.28 383.933 563.646 426.492 555.791C376.925 568.656 327.411 576.024 277.357 574.569Z" fill="black"/>
<path d="M365.13 672.267C419.668 671.902 474.391 662.928 525.675 644.272C503.847 656.7 481.937 666.741 457.261 672.812C497.297 668.146 536.231 659.215 575.004 645.511C540.61 668.39 501.409 683.541 460.514 691.103C505.196 689.39 549.206 681.965 592.032 667.888C547.999 688.695 501.842 703.359 453.482 709.494C501.871 711.243 550.016 705.832 597.193 693.045C546.848 711.193 496.127 725.291 444.008 733.462C474.432 734.609 503.54 732.215 533.801 728.588C475.777 746.033 414.447 750.685 354.806 741.661C378.919 740.149 402.736 736.974 426.177 729.749C403.944 730.244 382.569 727.843 361.327 722.331C383.48 719.45 404.182 716.138 426.55 712.533C384.687 712.72 344.541 707.115 304.234 696.737C342.929 701.911 381.033 703.76 420.211 701.99C394.566 700.686 370.076 698.148 345.291 693.948C371.741 697.855 397.815 697.711 423.431 691.132C401.412 690.902 383.419 682.416 365.13 672.267Z" fill="black"/>
<path d="M614.446 898.203C585.905 917.304 556.263 932.14 523.64 943.73C555.486 937.422 585.29 927.359 615.013 914.91C578.74 938.806 538.599 954.466 496.764 962.537C530.866 959.261 563.437 953.169 595.846 942.303C565.989 957.864 535.541 970.098 502.245 975.976C521.874 976.284 540.912 973.266 559.358 966.923C533.179 978.061 506.919 986.813 480.364 993.901C465.7 984.827 451.815 970.471 441.85 958.853C428.609 942.325 420.414 919.418 416.356 898.526C415.173 891.874 412.888 880.958 413.289 871.626C481.922 863.628 548.862 848.039 613.169 825.368C568.868 852.396 519.974 870.974 469.305 879.575C534.742 869.053 597.842 853.113 659.249 829.583C611.728 867.469 557.061 892.211 498.364 903.944C568.071 892.326 634.553 870.3 697.086 837.653C645.51 875.912 589.126 906.445 527.852 926.865C558.033 920.852 586.898 911.298 614.446 898.203Z" fill="black"/>
<path d="M661.62 1005.13C717.145 977.488 767.862 942.124 813.127 901.206C796.779 927.073 777.235 950.417 753.26 970.084C790.42 951.177 823.578 927.144 852.949 897.264C822.962 937.2 782.1 973.911 740.189 1000.86C774.825 985.143 807.206 966.393 838.055 944.826C782.696 998.502 716.351 1038.68 642.189 1060.01C664.099 1049.96 684.263 1037.83 701.149 1020.79C676.421 1032.35 651.825 1040.81 626.291 1049.78C657.034 1039.21 685.441 1023.22 709.846 1002.1C672.82 1017.9 633.752 1029.94 594.522 1037.21C617.829 1033.09 640.435 1015.38 661.62 1005.13Z" fill="black"/>
<path d="M284.059 243.417C312.231 262.797 344.94 274.86 378.13 279.978C360.032 282.486 344.243 282.529 325.983 280.264C352.462 292.055 379.799 300.949 408.639 304.776C376.417 307.034 345.187 303.286 314.439 292.592C322.738 304.504 335.441 312.209 348.788 317.742C362.135 323.275 377.065 326.128 391.271 328.766C333.027 325.669 276.096 304.848 230.332 267.65C252.971 279.089 276.683 286.908 301.764 292.771C283.691 281.898 268.865 268.051 257.503 250.506C275.496 258.992 292.549 267.987 310.542 276.473C302.109 267.671 288.519 254.978 284.059 243.417Z" fill="black"/>
<path d="M501.715 -75.5796C569.073 -15.4385 614.282 68.8493 628.8 158.212C614.963 117.093 595.998 79.9658 572.978 43.2117C590.064 81.3563 600.572 123.063 606.514 164.203C594.475 119.68 575.563 77.0559 550.797 38.2089C568.527 74.1818 581.129 114.147 590.105 153.037C574.818 111.488 554.832 72.4831 529.422 35.8079C544.118 74.0313 553.819 113.136 559.762 154.277C546.459 100.715 523.464 50.5798 492.736 5.23924C499.561 30.1027 505.876 54.0273 512.487 79.6147C501.899 35.5212 475.468 -3.03185 439.588 -30.9988C453.874 -25.9745 467.302 -18.0546 476.112 -5.20355C468.375 -21.6741 458.545 -36.4029 443.8 -47.8635C470.494 -36.7971 493.805 -19.6457 507.8 4.98121C499.176 -16.4778 488.673 -36.919 474.625 -56.0486C492.833 -48.2864 507.873 -35.163 517.785 -18.0474C510.048 -34.5179 501.667 -48.8168 489.957 -62.5279C501.505 -53.5902 511.174 -43.6348 517.594 -30.7049C512.247 -47.2543 512.996 -60.4207 501.715 -75.5796Z" fill="black"/>
<path d="M995.678 126.037C977.434 67.86 968.239 8.4285 927.279 -42.309C953.685 9.62546 969.244 66.2187 973.364 124.145C949.372 58.7504 920.895 -4.82388 889.6 -66.8715C902.522 -38.625 910.02 -8.04916 916.792 22.3117C904.272 -15.2667 885.898 -49.0678 862.826 -80.3245C876.205 -45.6418 884.59 -10.0775 891.095 26.5046C876.614 -12.4427 858.374 -49.3545 835.65 -84.4457C845.672 -57.0594 852.874 -28.1463 858.626 0.336632C843.071 -34.9911 823.543 -67.5595 798.377 -97.0746C805.04 -76.9845 811.193 -57.8334 818.071 -38.4673C804.558 -70.0394 782.802 -97.7555 756.214 -119.816C799.604 -138.452 851.994 -131.578 897.162 -118.971C899.337 -118.326 902.238 -117.466 904.413 -116.821C966.643 -52.6873 1000.57 37.7071 995.678 126.037Z" fill="black"/>
<path d="M1051.02 8.56464C1074.61 62.0258 1091.84 118.325 1103.12 176.015C1104.89 143.461 1101.88 111.065 1095.02 78.3171C1108.24 108.226 1117.62 137.784 1123.96 169.593C1128.92 139.562 1127.87 108.535 1119.22 79.1915C1131.33 104.836 1140.04 128.682 1144.55 156.011C1146.75 122.009 1144.16 88.165 1132.32 56.299C1143.54 76.9553 1154.05 97.3965 1160.79 119.873C1153.75 74.4682 1140.56 31.1775 1120.49 -10.2138C1121.11 0.9959 1121 11.9906 1122.35 23.4153C1113.21 1.01742 1101.26 -19.8539 1086.27 -38.4746C1089.36 -24.957 1093.18 -11.2244 1096.27 2.2932C1086.65 -13.1596 1076.1 -28.1034 1066.48 -43.5562C1074.76 -18.2627 1082.01 5.15297 1090.29 30.4465C1079.27 9.06635 1065.23 -10.0633 1049.51 -28.899C1058.92 -12.7223 1064.05 4.55094 1067.51 22.1181C1062.46 7.23151 1053.44 -4.8956 1041.38 -14.7722C1045.76 -5.59799 1047.16 0.329382 1051.02 8.56464Z" fill="black"/>
<path d="M1323.62 363.476C1324.66 330.707 1321.22 299.759 1313.21 268.244C1317.73 295.573 1316.52 323.569 1307.85 350.138C1310.48 314.688 1306.87 278.966 1297.33 244.635C1298.95 271.104 1297.67 296.713 1292.33 322.694C1287.35 288.929 1282.46 257.55 1277.49 223.785C1277.87 249.1 1274.41 274.064 1268.05 298.168C1267.67 272.853 1264.17 247.401 1257.35 222.538C1260.65 235.332 1259.1 245.896 1255.45 258.203C1253.54 230.071 1245.18 202.391 1231.91 177.979C1231.16 169.88 1231.34 161.272 1234.29 156.634C1248.23 165.493 1257.77 178.559 1273.29 184.737C1298.02 194.435 1315.1 211.314 1327.86 234.787C1329.91 238.543 1331.73 243.022 1334.5 246.993C1336.09 286.843 1332.39 325.912 1323.62 363.476Z" fill="black"/>
<path d="M1419.73 382.527C1420.16 381.079 1420.8 378.908 1420.51 377.245C1420.45 382.742 1421.13 388.455 1421.29 393.228C1422.5 407.763 1422.77 422.808 1423.98 437.343C1423.72 464.83 1422.73 492.101 1424.86 519.509C1426.74 539.757 1425.3 560.592 1425.3 581.858C1425.28 595.239 1425.25 608.621 1424.29 622.511C1402.38 632.552 1380.09 638.544 1355.84 643.167C1374.29 636.824 1391.72 628.603 1407.1 616.627C1375.07 631.542 1341.34 638.867 1306.01 640.988C1341.31 630.983 1372.24 611.803 1397.43 585.406C1381.91 600.493 1362.6 609.732 1340.45 612.613C1361.13 601.418 1378.31 586.036 1392 566.47C1367.3 585.922 1339.75 599.016 1309.65 607.417C1339.13 587.807 1363.67 563.581 1383.78 535.679C1371.59 550.178 1356.63 560.707 1338.19 567.05C1365.28 547.519 1386.83 520.047 1399.91 489.27C1378.83 509.797 1354.26 526.139 1328.17 539.664C1356.06 522.735 1376.68 495.771 1386.42 465.582C1368.03 487.693 1345.94 506.343 1319.54 518.205C1355.14 488.597 1384.78 452.495 1407.09 411.856C1412.99 402.581 1417.66 392.153 1419.73 382.527Z" fill="black"/>
<path d="M975.026 927.166C973.656 929.123 972.798 932.018 971.429 933.975C972.798 932.018 974.167 930.062 975.026 927.166Z" fill="black"/>
<path d="M1036.89 910.072C1031.92 918.837 1028.7 929.696 1025.19 938.892C1019.44 952.94 1014.64 966.479 1009.62 980.742C998.722 990.898 989.782 1002.42 984.764 1016.69C976.015 1040.87 981.767 1069.35 966.921 1090.15C973.066 1066.77 974.431 1043.55 972.17 1019.25C972.284 1050.79 961.817 1080.76 942.569 1105.77C950.727 1078.26 954.83 1051.12 955.308 1022.91C947.365 1049.7 938.697 1076.27 926.618 1101.04C931.332 1042.58 948.588 987.056 973.818 933.896C968.719 945.772 967.03 959.448 968.67 972.535C977.93 949.291 997.77 927.61 1018.58 913.304C1002.04 926.514 993.638 946.862 994.367 968.342C1002.47 946.331 1018.04 925.747 1036.89 910.072Z" fill="black"/>
<path d="M1240.04 967.167C1236.82 978.025 1233.09 987.945 1228.42 998.373C1221.01 1012.72 1211.94 1027.35 1201.12 1039.89C1188.55 1050.34 1174.54 1060.36 1158.99 1067.57C1177.92 1054.28 1193.57 1036.08 1203.13 1014.5C1181.41 1037.2 1156.63 1054.26 1128.65 1068.81C1174.96 1037.65 1209.7 989.672 1224.86 935.888C1228.33 953.456 1222.96 971.553 1213.67 986.913C1222.56 980.885 1230.94 973.918 1240.04 967.167Z" fill="black"/>
<path d="M1371.4 678.495C1380.42 669.357 1387.48 658.85 1391.85 646.758C1376.04 660.183 1360.44 672.883 1344.63 686.308C1346.43 682.903 1348.44 678.775 1349 674.216C1324.95 691.497 1299.36 705.96 1272.24 717.607C1288.38 713.73 1303.52 715.858 1319.66 711.981C1307.23 719.32 1293.99 724.058 1279.52 727.642C1296.6 723.255 1313.46 719.593 1330.97 713.758C1321.78 718.123 1313.33 722.703 1303.93 727.792C1306.53 726.989 1309.35 725.463 1312.68 724.875C1325.92 720.137 1338.86 713.737 1351.59 708.06C1360.77 703.696 1370.68 699.546 1380.08 694.457C1397.47 678.352 1412.4 659.939 1424.64 639.942C1424.99 636.108 1425.12 632.997 1425.26 629.886C1408.15 647.654 1390.03 663.544 1371.4 678.495Z" fill="black"/>
<path d="M883.353 933.057C882.308 944.561 879.087 955.42 875.867 966.278C869.236 975.338 861.881 984.182 854.74 992.303C831.222 1018.41 810.39 1046.09 787.597 1072.41C759.973 1104.39 719.382 1156.14 671.933 1153.88C650.129 1152.93 625.234 1138.46 605.71 1127.16C650.874 1118.5 694.345 1102.25 733.008 1078.27C719.074 1090.68 700.575 1102.52 683.364 1110.02C717.142 1097.2 746.192 1079.03 770.65 1052.42C759.401 1066.41 747.428 1080.19 733.709 1091.87C764.343 1071.03 790.546 1046.51 810.787 1015.5C808.506 1025.85 804.776 1035.77 797.635 1043.89C824.186 1015.53 845.366 984.01 860.665 948.381C857.392 964.737 853.824 979.43 846.926 994.711C864.538 977.882 877.933 956.652 883.353 933.057Z" fill="black"/>
<path d="M447.708 433.71C438.659 434.964 429.395 436.942 421.072 438.411C387.776 444.289 353.244 449.012 318.899 445.127C312.67 444.855 304.99 444.153 297.524 442.726C286.057 436.175 274.805 428.9 264.921 419.669C275.878 425.281 288.204 428.936 299.805 432.377C292.554 430.226 287.398 426.335 281.006 421.289C301.818 428.248 323.274 433.036 345.67 437.315C332.833 432.721 322.091 426.385 311.993 417.877C334.336 427.653 357.753 433.81 382.243 436.347L381.947 434.684C367.527 432.771 353.455 427.023 341.907 418.085C364.088 423.088 386.188 425.704 408.288 428.32C399.158 427.187 390.457 424.607 382.4 419.855C403.427 426.091 424.883 430.879 447.708 433.71Z" fill="black"/>
<path d="M474.42 128.18C480.654 149.718 483.558 171.844 484.073 194.048C478.779 172.002 471.605 150.973 461.102 130.531C468.733 157.997 474.189 184.817 477.766 212.655C464.812 155.259 433.33 101.819 389.15 61.94C403.733 68.6271 414.556 77.3497 426.185 88.6741C403.49 61.4669 378.485 36.7253 350.017 15.6821C380.498 32.597 407.73 52.4863 433.164 75.7801C418.687 58.0983 403.996 41.1404 388.364 24.6914C407.888 35.9943 425.828 49.9777 441.674 65.7028C440.868 63.1011 439.123 61.0082 438.316 58.4065C450.456 70.6698 460.716 83.9508 468.157 98.7585C474.067 110.749 478.823 123.973 483.068 136.258C479.657 134.459 477.401 131.427 474.42 128.18Z" fill="black"/>
<path d="M761.496 -20.5919C780.032 17.9827 791.909 57.7327 799.301 99.3032C787.773 55.7187 768.002 15.9902 740.713 -19.6673C760.484 20.0612 776.711 61.1014 791.059 103.159C780.097 76.2818 765.673 53.1026 746.765 31.744C763.984 66.7779 777.874 102.4 788.005 140.057C751.225 43.3049 693.179 -45.5772 618.676 -118.863C633.955 -119.845 649.529 -119.164 662.795 -116.018C694.106 -109.883 719.674 -89.6993 738.959 -64.2911C755.477 -42.8537 768.156 -21.7674 777.156 3.74117C772.563 -4.70911 767.03 -12.6505 761.496 -20.5919Z" fill="black"/>
<path d="M948.659 122.332C973.615 173.836 989.603 228.982 994.877 285.675C997.826 259.773 998.385 233.949 997.279 208.419C1008.8 230.738 1013.45 254.956 1014.05 279.547C1014.82 252.999 1012.48 226.315 1005.87 200.728C1014.41 219.8 1021.29 239.166 1025.35 260.059C1019.92 219.858 1015.94 180.086 1010.5 139.885C1013.03 157.961 1011.64 173.299 1007.72 191.826C1004.04 174.983 1000.14 158.864 995.95 141.081C996.517 157.789 996.574 173.557 995.691 189.834C991.122 168.002 984.888 146.464 977.499 126.159C981.262 145.389 982.636 164.698 980.679 184.594C974.579 159.946 963.217 142.4 948.659 122.332Z" fill="black"/>
<path d="M1223.87 117.314C1218.24 184.164 1205.15 249.588 1183.87 313.37C1191.44 282.536 1194.22 251.86 1195.05 219.815C1188.64 249.416 1181.71 278.078 1175.3 307.679C1175.38 288.8 1175.24 270.645 1175.1 252.49C1170.33 273.914 1162.62 286.593 1154.44 306.217C1158.19 261.65 1154.98 216.596 1145.12 172.718C1156.05 191.711 1164.17 212.231 1167.29 233.633C1166.26 210.49 1164.3 187.855 1160.67 165.515C1170.07 181.691 1177.08 197.947 1180.12 216.962C1176.89 185.289 1174.47 156.219 1171.24 124.546C1181.66 142.601 1189.26 162.182 1193.54 182.351C1191.57 138.451 1185.84 96.5866 1176.27 54.371C1185.73 86.3158 1194.68 117.322 1205.08 148.758C1207.86 118.081 1206.6 87.7779 1199.61 58.141C1206.92 76.0593 1212.26 92.6087 1216.03 111.839C1218.06 94.3288 1218.52 79.4996 1217.44 61.8537C1222.36 79.8508 1223.95 98.4357 1223.87 117.314Z" fill="black"/>
<path d="M1360.11 338.857C1356.67 350.439 1351.09 369.261 1346.93 380.628C1341.7 395.615 1333.56 409.742 1327.1 423.575C1326.67 425.022 1326.45 425.746 1325.3 426.979C1315.98 434.455 1306.15 440.991 1295.09 446.374C1307.95 437.587 1318.05 424.829 1324.01 410.057C1314.56 420.643 1304.08 429.351 1291.14 435.752C1305.37 425.008 1315.9 410.802 1323.01 394.798C1310.31 408.358 1295.87 419.826 1281.64 430.57C1305.61 410.903 1324.13 385.681 1335.84 356.861C1345.53 332.17 1349.41 305.758 1348.52 279.504C1351.45 288.248 1355.1 297.207 1358.03 305.951C1362.28 318.236 1363.76 326.55 1360.11 338.857Z" fill="black"/>
<path d="M1133.11 678.71C1139.69 675.148 1145.54 671.371 1151.91 668.533C1156.6 665.988 1162.24 662.935 1167.16 659.667C1172.07 656.398 1176.98 653.13 1181.9 649.862C1186.81 646.593 1191.72 643.325 1196.42 640.781C1201.33 637.512 1206.25 634.244 1211.67 631.915C1221.5 625.378 1231.11 619.565 1241.23 614.692C1246.66 612.362 1251.35 609.818 1256.78 607.488C1262.2 605.159 1267.63 602.83 1273.05 600.5C1283.39 594.902 1293.94 588.581 1302.53 580.89C1306.72 577.407 1311.12 573.2 1315.52 568.993C1319.93 564.785 1323.6 560.363 1327.28 555.941C1335.36 547.311 1342.72 538.467 1348.11 528.253C1341.99 538.252 1333.91 546.881 1325.32 554.572C1320.92 558.779 1317.24 563.201 1313.05 566.685C1308.65 570.892 1304.46 574.375 1299.55 577.644C1290.45 584.395 1280.11 589.993 1269.99 594.867C1264.56 597.196 1259.35 598.802 1253.93 601.131C1248 602.521 1242.57 604.851 1237.15 607.18C1226.3 611.839 1215.96 617.437 1205.63 623.034C1200.93 625.579 1195.29 628.632 1190.59 631.176C1185.17 633.506 1180.25 636.774 1175.34 640.042C1170.43 643.311 1165 645.64 1160.31 648.185C1155.61 650.729 1150.18 653.058 1144.76 655.388C1134.64 660.261 1124.3 665.859 1114.82 668.561L1104.59 663.164C1106.82 658.312 1109.05 653.46 1112.21 648.099C1114.01 644.694 1115.81 641.29 1118.12 638.824C1120.64 635.635 1122.66 631.506 1124.45 628.102C1128.05 621.293 1131.86 613.76 1135.24 607.675C1138.63 601.59 1143.67 595.211 1148 588.617L1174.44 549.992C1183.59 537.743 1193.47 525.709 1204.08 513.89C1209.12 507.511 1213.96 501.856 1219 495.477C1224.05 489.098 1228.37 482.504 1232.69 475.911C1242.06 462.938 1249.98 449.535 1257.39 435.193C1260.99 428.384 1264.07 420.636 1266.94 413.612C1269.82 406.588 1272.18 398.625 1275.77 391.816C1282.46 377.259 1288.93 363.426 1293.43 348.224C1288.2 363.211 1281.01 376.829 1273.6 391.171C1270 397.98 1266.92 405.728 1264.04 412.752C1261.17 419.776 1257.58 426.585 1253.98 433.394C1246.78 447.012 1237.42 459.985 1228.26 472.234C1223.21 478.613 1219.11 484.483 1214.06 490.861C1209.23 496.517 1204.18 502.895 1198.62 508.335C1188.02 520.154 1176.9 531.034 1166.81 543.792L1138.41 581.048C1133.36 587.427 1128.53 593.082 1123.99 600.4C1119.67 606.994 1115.86 614.527 1111.75 620.397C1109.95 623.801 1107.64 626.267 1105.12 629.456C1102.6 632.646 1100.8 636.05 1098.28 639.24C1095.32 643.877 1092.15 649.238 1089.93 654.09L1087.75 653.445L1078.03 648.987L1055.18 638.272L1055.39 637.548C1055.61 636.824 1055.82 636.1 1056.04 635.377C1056.25 634.653 1056.46 633.929 1056.68 633.205L1060.76 619.451C1063.55 610.04 1066.34 600.629 1068.41 591.004C1069.91 585.936 1070.69 580.654 1071.25 576.096C1071.81 571.537 1072.59 566.255 1073.88 561.911C1075.94 552.286 1078.01 542.66 1080.08 533.034C1082.14 523.408 1084.21 513.783 1085.55 503.942C1086.89 494.101 1088.23 484.26 1089.35 475.144C1089.92 470.585 1090.7 465.303 1091.26 460.744C1091.82 456.186 1093.11 451.843 1094.61 446.775C1097.4 437.365 1100.92 428.169 1103.71 418.758C1106.5 409.348 1109.29 399.937 1112.08 390.526C1114.87 381.115 1116.94 371.49 1119.73 362.079C1122.52 352.668 1125.31 343.258 1127.38 333.632C1128.88 328.565 1129.44 324.006 1130.22 318.724C1130.78 314.165 1131.56 308.883 1132.12 304.325C1132.69 299.766 1132.74 294.269 1132.58 289.495C1132.42 284.722 1132.25 279.949 1131.37 274.96C1131.2 270.187 1130.32 265.198 1130.15 260.425C1129.99 255.651 1130.77 250.369 1130.61 245.595C1130.28 236.049 1130.17 225.778 1131.3 216.661L1136.77 187.569L1135.22 219.399C1133.16 229.025 1133.27 239.295 1133.59 248.842C1133.75 253.616 1133.19 258.174 1133.14 263.671C1133.3 268.445 1133.46 273.218 1133.41 278.716C1134.46 288.478 1134.06 297.809 1132.72 307.65C1132.15 312.209 1131.37 317.491 1130.81 322.049C1130.25 326.608 1128.75 331.675 1128.18 336.234C1126.12 345.859 1122.6 355.055 1119.81 364.466C1117.02 373.876 1114.23 383.287 1111.44 392.698C1108.65 402.109 1105.86 411.519 1102.34 420.715C1098.82 429.911 1095.31 439.106 1091.79 448.302C1090.29 453.369 1089 457.713 1087.5 462.78C1086 467.847 1085.43 472.406 1084.66 477.688C1083.32 487.529 1081.97 497.369 1080.12 506.271C1078.06 515.897 1076.21 524.799 1074.14 534.425C1071.35 543.835 1069.28 553.461 1067.22 563.087C1065.72 568.154 1065.15 572.713 1064.38 577.995C1063.81 582.553 1062.52 586.897 1061.02 591.964C1058.23 601.375 1055.65 610.062 1052.14 619.257L1047.33 632.796C1047.12 633.52 1047.12 633.52 1046.91 634.244L1046.26 636.416C1033.64 631.098 1021.96 625.271 1009.55 619.229C997.144 613.187 984.522 607.868 971.9 602.55C968.275 601.475 965.59 599.891 961.964 598.816C970.632 572.247 971.621 544.975 975.509 518.563C975.991 511.618 977.198 504.888 978.405 498.158C979.612 491.428 980.094 484.483 981.301 477.753C982.99 464.077 984.679 450.402 985.643 436.512C986.607 422.621 987.571 408.731 988.535 394.841C989.499 380.951 990.463 367.06 990.702 352.955C991.904 324.959 990.932 296.319 984.026 269.069C976.905 242.542 971.663 214.998 961.212 189.06C956.457 175.836 951.487 163.336 946.731 150.112C944.609 143.97 941.976 136.889 939.853 130.746C937.945 123.88 935.823 117.738 933.915 110.871C917.283 57.8975 890.743 9.07362 875.99 -44.9179C889.293 8.64358 915.403 58.9152 930.371 112.183C932.278 119.049 933.461 125.7 935.584 131.843C937.492 138.709 939.614 144.852 942.247 151.933C947.003 165.157 951.758 178.38 955.789 191.389C964.574 217.621 970.031 244.442 976.212 271.477C982.608 297.788 982.345 325.275 981.142 353.27C980.178 367.161 979.214 381.051 978.25 394.941C977.286 408.832 976.323 422.722 974.634 436.397C972.944 450.072 971.255 463.748 968.841 477.208C967.634 483.938 966.427 490.668 965.22 497.398C964.013 504.128 962.806 510.859 961.384 518.313C957.496 544.724 955.998 571.057 947.463 594.516C942.602 592.287 937.527 590.781 933.177 589.491C920.34 584.897 907.289 581.027 894.453 576.432C882.342 572.053 870.23 567.674 859.703 560.614C859.326 556.565 860.318 550.558 862.251 544.043C863.109 541.148 864.183 537.528 865.041 534.633C866.115 531.013 866.248 527.903 867.322 524.283C869.736 510.823 870.485 497.656 870.509 484.275C870.534 470.894 871.068 458.451 870.367 444.855C869.91 438.418 869.666 431.258 868.484 424.607C867.301 417.956 865.393 411.089 863.995 405.162C857.385 379.575 850.559 354.711 843.949 329.124C837.338 303.536 831.452 278.164 823.902 253.085C820.596 240.292 816.351 228.007 811.381 215.507C806.411 203.007 801.226 191.231 795.316 179.24C784.221 155.474 772.187 132.216 759.213 109.467C752.363 97.9844 746.239 86.7174 739.389 75.2353C736.327 69.6018 732.539 63.7533 728.537 58.6286C724.75 52.7801 720.533 48.3793 716.746 42.5308C709.682 31.7726 702.832 20.2906 695.768 9.53242C691.98 3.68388 688.703 -1.22574 684.916 -7.07428C681.854 -12.7078 678.792 -18.3413 677.609 -24.9926C678.792 -18.3413 681.854 -12.7078 684.701 -6.35039C687.764 -0.716863 691.551 5.13168 694.828 10.0413C701.678 21.5234 707.802 32.7904 714.866 43.5486C718.654 49.3971 722.656 54.5218 725.933 59.4314C729.72 65.2799 732.997 70.1895 736.059 75.823C742.184 87.0901 749.034 98.5722 755.158 109.839C767.193 133.097 778.502 156.14 789.382 180.631C794.567 192.407 799.537 204.907 803.997 216.468C808.242 228.752 812.487 241.037 815.792 253.831C822.618 278.694 827.564 304.576 833.449 329.948C839.335 355.32 845.946 380.908 851.832 406.28C853.014 412.931 854.412 418.859 855.809 424.786C856.267 431.222 856.939 436.935 857.397 443.371C857.588 456.028 856.838 469.195 856.089 482.361C855.34 495.528 854.805 507.97 851.881 520.492C851.022 523.387 850.889 526.498 850.03 529.393C849.171 532.289 848.312 535.185 847.239 538.804C846.38 541.7 845.307 545.319 844.233 548.939C844.019 549.663 843.804 550.386 843.59 551.11C836.768 547.512 829.437 542.975 822.615 539.377C798.741 526.784 773.498 516.148 750.349 503.77C744.252 500.387 738.881 497.219 733.51 494.051C728.139 490.883 722.983 486.991 716.376 482.669C704.399 475.18 692.717 469.353 681.249 462.802C678.564 461.218 676.093 458.91 673.407 457.326C675.607 444.59 674.262 433.165 672.702 422.464C671.143 411.763 668.858 400.847 667.299 390.146C664.394 368.021 660.55 346.404 655.041 325.081C644.748 282.651 629.461 241.102 612.08 201.294C603.026 181.283 593.973 161.272 584.705 141.985C574.712 122.482 563.78 103.489 551.693 85.7284C545.649 76.848 539.606 67.9677 532.837 58.8724C526.793 49.9921 519.085 41.4056 511.887 33.7581C496.766 18.248 479.551 4.47953 467.679 -14.005C479.551 4.47953 495.612 19.4807 510.733 34.9908C517.931 42.6384 524.914 51.0098 530.958 59.8902C537.001 68.7705 542.83 78.3747 548.874 87.255C560.021 105.525 570.954 124.518 580.007 144.529C589.06 164.54 597.388 184.337 605.716 204.133C622.158 244.449 635.27 285.353 644.623 328.292C649.407 349.4 652.526 370.802 654.92 391.988C656.265 403.413 657.824 414.114 658.659 424.6C659.412 432.699 660.166 440.798 659.469 448.467C655.548 445.729 651.627 442.991 647.492 440.977C635.299 434.211 622.892 428.169 610.996 423.066C598.589 417.024 586.692 411.921 574.285 405.879C562.603 400.052 551.35 392.777 540.313 384.778C529.275 376.779 518.022 369.505 504.675 363.971C503.95 363.756 503.225 363.541 502.5 363.326L503.225 363.541C503.679 348.712 501.742 333.962 498.141 319.505C494.54 305.049 487.18 292.628 481.485 279.913C478.637 273.556 476.515 267.413 474.392 261.271C472.485 254.404 470.577 247.538 469.394 240.887C466.303 227.369 462.487 213.637 457.007 200.198C455.69 196.657 454.159 193.84 452.843 190.3L448.464 181.126C445.616 174.768 442.769 168.411 439.921 162.053C434.226 149.339 427.591 137.133 419.291 125.22C411.717 113.523 402.262 102.844 392.808 92.1647C388.081 86.8251 383.354 81.4854 377.473 77.3785C372.531 72.7628 365.28 70.6125 360.553 65.2729C365.28 70.6125 372.316 73.4866 377.258 78.1024C382.2 82.7182 387.141 87.3339 391.654 93.3975C400.168 104.586 408.897 115.05 416.257 127.471C423.107 138.953 429.527 151.883 434.497 164.383C437.345 170.74 440.193 177.098 442.101 183.964L446.265 193.862C447.581 197.403 449.112 200.219 449.704 203.545C453.734 216.554 456.825 230.071 459.915 243.589C461.098 250.24 463.006 257.107 463.974 264.482C465.882 271.348 467.79 278.214 470.423 285.296C475.903 298.734 481.813 310.725 484.394 323.304C487.189 335.159 488.319 347.307 487.784 359.75C479.809 357.385 472.558 355.234 465.951 350.913C443.017 337.811 423.679 317.9 400.234 303.859C376.789 289.818 352.271 279.397 331.35 262.167C352.271 279.397 377.085 291.481 399.59 306.031C422.096 320.58 440.493 341 463.938 355.041C470.035 358.424 476.131 361.807 482.656 363.742C489.182 365.677 495.707 367.612 501.293 370.056C504.193 370.917 506.154 372.286 508.839 373.87C507.685 375.102 505.805 376.12 504.141 376.414C501.321 377.941 497.052 379.037 493.723 379.625L481.854 382.406C477.585 383.502 474.041 384.814 469.771 385.911C454.144 390.727 439.028 396.482 423.319 398.912C391.688 404.496 358.874 403.428 326.275 401.636C358.955 405.814 391.85 409.269 424.287 406.287C441.231 405.012 456.858 400.195 472.996 396.318C477.265 395.221 480.595 394.633 484.864 393.537L497.243 391.695C501.297 391.322 505.567 390.225 510.051 388.405C514.32 387.308 519.019 384.764 522.696 380.342C527.343 383.295 531.049 386.756 535.695 389.709C546.733 397.708 557.771 405.707 569.963 412.473C582.155 419.239 593.837 425.066 606.244 431.108C617.926 436.935 630.333 442.977 641.8 449.528C647.172 452.696 653.053 456.803 658.21 460.695C658.935 460.91 659.445 461.848 659.445 461.848C653.592 465.626 648.464 469.618 642.611 473.395C639.577 475.646 635.818 477.681 632.999 479.208C629.24 481.243 625.696 482.555 622.662 484.805C608.055 491.5 592.724 497.979 577.607 503.734C562.276 510.214 548.18 517.847 532.767 521.939C517.355 526.032 501.002 530.633 485.08 533.787C477.481 535.471 468.942 537.665 461.558 538.625C453.959 540.309 445.85 541.055 437.74 541.8C429.631 542.546 421.522 543.291 413.198 544.76C404.874 546.23 397.275 547.914 388.951 549.383C384.682 550.48 380.627 550.852 377.298 551.44C373.243 551.813 369.188 552.186 365.134 552.558L328.642 555.913C324.587 556.285 320.747 555.934 316.693 556.307C308.798 556.328 300.045 559.245 292.284 556.156C295.694 557.955 300.474 557.798 304.529 557.425C308.583 557.052 312.638 556.68 316.478 557.031C320.318 557.382 325.098 557.224 328.938 557.575L340.887 557.181L365.51 556.608C369.565 556.235 373.405 556.586 377.46 556.214C381.514 555.841 385.569 555.468 389.838 554.372C398.162 552.902 405.761 551.218 413.87 550.473C421.98 549.727 430.089 548.982 437.983 548.96C446.093 548.215 453.987 548.193 463.036 546.939C471.36 545.47 479.684 544 487.069 543.04C502.991 539.886 518.914 536.733 535.052 532.855C543.376 531.386 551.404 528.254 559.432 525.122C567.46 521.99 574.764 518.642 581.852 516.019C596.969 510.264 612.811 504.723 628.142 498.244C631.901 496.209 635.445 494.897 639.929 493.077C643.688 491.041 647.447 489.005 651.206 486.97C657.999 482.684 665.007 477.674 671.799 473.388L671.127 467.675C672.362 468.829 674.323 470.198 676.283 471.567C688.046 479.781 699.728 485.608 710.981 492.883C716.137 496.775 722.019 500.882 727.39 504.05C733.271 508.157 739.368 511.539 744.739 514.707C756.931 521.473 768.613 527.3 781.02 533.343C788.566 537.156 796.112 540.969 802.934 544.567C798.531 548.774 793.403 552.766 788.275 556.758C786.181 558.5 784.086 560.242 781.992 561.983C779.898 563.725 777.804 565.466 775.71 567.208C771.522 570.691 768.058 574.39 764.085 577.149C748.271 590.574 731.437 602.12 713.153 613.237C677.014 634.022 638.322 650.113 597.804 661.724C577.183 667.422 556.776 672.396 536.369 677.37C526.166 679.857 515.748 683.068 505.544 685.555C500.55 686.437 495.555 687.318 489.836 687.985C487.446 688.064 484.842 688.867 481.727 688.73C479.122 689.533 476.732 689.612 474.128 690.415C453.211 694.45 432.804 699.424 411.887 703.459C401.898 705.222 391.184 706.771 380.685 707.595C375.69 708.476 370.186 708.419 365.191 709.301C360.412 709.458 354.692 710.125 349.617 708.62C354.478 710.849 360.197 710.182 364.977 710.025C370.481 710.082 375.476 709.2 380.981 709.258C391.48 708.433 401.979 707.609 412.693 706.061C433.395 702.75 454.312 698.714 475.23 694.679C480.224 693.798 485.218 692.916 490.938 692.25C495.932 691.368 501.437 691.425 507.156 690.759C518.085 688.487 527.563 685.785 538.492 683.513C558.899 678.538 579.816 674.503 600.223 669.529C641.761 659.796 681.903 644.135 719.492 623.78C738.287 613.602 756.061 601.547 773.324 588.552C777.512 585.069 781.701 581.586 785.889 578.102C787.983 576.361 790.077 574.619 791.957 573.601C794.051 571.86 795.93 570.842 798.025 569.1C804.092 564.599 811.1 559.589 817.812 552.916C829.279 559.467 840.746 566.018 851.999 573.293C863.762 581.507 877.108 587.04 889.945 591.634C899.881 595.369 909.817 599.103 919.753 602.837C916.075 607.259 911.672 611.466 907.269 615.674L885.55 638.373L863.106 660.856C859.643 664.555 856.179 668.253 851.777 672.46C848.313 676.159 844.635 680.581 841.172 684.279C834.756 692.615 828.34 700.951 821.414 708.347C820.044 710.304 817.95 712.046 816.581 714.002C814.487 715.744 813.118 717.701 811.024 719.442C807.561 723.141 803.883 727.563 800.419 731.261C793.278 739.382 787.077 746.994 779.425 754.175C771.774 761.357 764.122 768.539 756.471 775.72C740.657 789.145 724.844 802.569 707.07 814.625C698.183 820.652 689.511 825.956 680.839 831.26L653.882 847.68C635.598 858.797 617.528 869.19 598.438 877.704C579.347 886.219 559.236 892.856 538.615 898.554C559.021 893.58 578.918 887.667 598.733 879.367C618.334 871.791 637.129 861.614 655.198 851.221L682.665 835.739C692.063 830.651 700.735 825.347 709.622 819.319C727.181 807.988 744.445 794.993 760.258 781.569C768.635 774.602 776.286 767.42 783.938 760.239C791.589 753.057 799.456 745.151 806.382 737.755C809.845 734.056 813.308 730.358 816.772 726.66C818.866 724.918 820.235 722.961 822.329 721.22C824.423 719.478 826.517 717.736 828.101 715.056C835.242 706.935 841.658 698.6 848.585 691.203C852.048 687.505 855.511 683.806 858.975 680.108C862.438 676.41 866.626 672.926 870.089 669.228L915.998 626.138C921.556 620.698 927.113 615.258 932.885 609.094C942.821 612.828 953.268 617.501 962.989 621.959C974.886 627.062 987.293 633.105 998.975 638.932C1006.52 642.745 1014.07 646.558 1021.61 650.371C1021.18 651.818 1020.24 652.327 1020.03 653.051C1017.8 657.903 1015.57 662.756 1012.84 666.669C1011.47 668.626 1010.1 670.583 1008.73 672.539L1004.41 679.133C1001.67 683.047 998.716 687.684 995.253 691.382L976.729 716.604C970.313 724.94 964.408 734.214 959.442 742.98L951.523 756.383C948.57 761.02 946.342 765.872 943.604 769.786C938.423 779.275 934.183 788.256 929.942 797.236C927.714 802.089 924.976 806.002 922.748 810.854C920.01 814.768 917.057 819.405 914.319 823.318C908.628 831.869 902.212 840.205 896.01 847.816C883.393 863.764 869.835 880.22 857.218 896.167L847.339 908.201C843.875 911.9 840.412 915.598 836.949 919.296C830.023 926.693 822.371 933.875 814.719 941.056C799.631 954.696 782.582 966.966 765.533 979.237C757.371 985.479 748.699 990.783 739.302 995.872C730.629 1001.18 721.232 1006.26 712.56 1011.57C721.232 1006.26 730.629 1001.18 739.812 996.811C749.21 991.722 757.882 986.418 766.554 981.114C783.388 969.568 800.437 957.297 816.976 944.088C825.138 937.845 832.789 930.664 839.715 923.267C843.179 919.568 846.642 915.87 850.32 911.448L860.924 899.629C874.267 883.897 888.12 869.103 901.677 852.647C908.093 844.311 914.509 835.976 920.71 828.364C923.449 824.451 927.127 820.029 930.079 815.391C933.032 810.754 935.985 806.117 937.998 801.988C943.179 792.499 947.42 783.518 952.386 774.753C957.352 765.987 963.043 757.436 968.009 748.671C973.7 740.12 979.391 731.569 984.867 723.743L1003.9 699.46C1007.36 695.761 1010.32 691.124 1013.78 687.426L1018.83 681.047C1020.2 679.09 1021.57 677.133 1023.15 674.453C1026.1 669.816 1028.33 664.963 1030.56 660.111C1030.99 658.663 1031.93 658.154 1032.36 656.707C1032.36 656.707 1032.36 656.707 1033.08 656.922L1069.58 674.833C1070.3 675.048 1070.3 675.048 1071.03 675.263C1069.66 677.219 1067.78 678.237 1066.41 680.194C1064.1 682.659 1062.73 684.616 1061.15 687.297C1059.56 689.977 1057.98 692.658 1057.12 695.553C1054.68 701.13 1053.18 706.197 1051.16 710.325C1048.94 715.178 1046.71 720.03 1044.27 725.606C1035.14 745.739 1028.19 766.517 1021.24 787.295C1018.23 797.43 1014.29 808.073 1012.01 818.423L1003.5 849.766C1000.5 859.9 997.275 870.759 993.545 880.679C989.814 890.598 986.084 900.518 981.413 910.946C976.958 920.651 972.502 930.355 967.832 940.784C963.376 950.488 959.431 961.132 955.7 971.051C951.97 980.971 948.025 991.614 944.294 1001.53C940.564 1011.45 935.893 1021.88 931.438 1031.59L924.754 1046.14C922.527 1051 920.299 1055.85 918.071 1060.7C913.615 1070.41 907.71 1079.68 901.079 1088.74C888.757 1106.35 873.75 1122.38 858.743 1138.4C873.75 1122.38 889.268 1107.29 902.314 1089.89C908.945 1080.83 914.636 1072.28 920.032 1062.07C922.259 1057.22 924.487 1052.36 926.715 1047.51L933.398 1032.96C937.854 1023.25 943.249 1013.04 946.98 1003.12C951.435 993.414 955.381 982.77 959.111 972.85C962.842 962.931 967.512 952.502 971.967 942.798C976.423 933.093 981.604 923.604 986.274 913.175C990.73 903.471 995.4 893.042 999.13 883.123C1003.08 872.479 1006.81 862.56 1010.03 851.701L1019.98 820.788C1022.99 810.654 1026.93 800.01 1030.66 790.091C1037.61 769.312 1045.08 749.473 1054.71 730.279C1056.94 725.427 1059.17 720.575 1062.12 715.937C1065.29 710.576 1066.79 705.509 1069.02 700.657C1069.66 698.485 1071.03 696.528 1072.4 694.572C1073.77 692.615 1075.14 690.658 1077.23 688.917C1078.6 686.96 1080.7 685.218 1082.79 683.476C1083.73 682.968 1084.88 681.735 1085.82 681.226C1091.19 684.394 1097.51 687.053 1102.88 690.221C1102.66 690.945 1102.96 692.608 1102.74 693.332C1102.31 694.779 1102.39 697.166 1101.75 699.338C1102.05 701.001 1101.4 703.172 1101.7 704.835C1101.94 711.995 1102.4 718.432 1103.37 725.807C1105.52 739.833 1109.55 752.842 1113.58 765.851C1120.91 791.653 1125.86 817.534 1132.04 844.569C1138.44 870.881 1140.78 897.565 1141.46 924.543C1141.41 951.305 1134.4 977.581 1130.52 1003.99C1136.07 977.287 1144.52 951.442 1145.51 924.17C1146.5 896.898 1145.1 869.705 1139.64 842.885C1134.91 816.28 1131.12 789.166 1124.72 762.855C1121.42 750.061 1118.33 736.543 1117.2 724.395C1116.74 717.959 1116.5 710.798 1116.55 705.301C1116.25 703.638 1116.68 702.19 1117.11 700.743C1117.33 700.019 1117.54 699.295 1117.03 698.356L1177.7 730.523L1461.88 884.104L1474.98 861.212L1133.11 678.71Z" fill="black"/>
</g>
<defs>
<clipPath id="clip0_20_91">
<rect width="1378.68" height="1316.83" fill="white" transform="translate(374.396 -274) rotate(16.518)"/>
</clipPath>
</defs>
</svg>
